<?xml version="1.0" standalone="no"?><!DOCTYPE svg PUBLIC "-//W3C//DTD SVG 1.1//EN" "http://www.w3.org/Graphics/SVG/1.1/DTD/svg11.dtd"><svg t="1680233961758" class="icon" viewBox="0 0 1024 1024" version="1.1" xmlns="http://www.w3.org/2000/svg" p-id="12523" xmlns:xlink="http://www.w3.org/1999/xlink" width="200" height="200"><path d="M0 0h1024v1024H0z" fill="#D8D8D8" fill-opacity="0" p-id="12524"></path><path d="M672.597333 69.888c-67.413333-24.618667-136.448-31.274667-203.52-25.002667-77.653333 6.144-115.626667 30.165333-113.365333 25.813334C228.693333 116.053333 121.173333 213.674667 71.424 350.506667c-88.576 243.754667 36.906667 513.28 280.234667 602.026666 243.498667 88.746667 512.597333-36.949333 601.216-280.704 88.618667-243.626667-36.864-513.194667-280.277334-601.941333zM367.701333 908.458667a420.949333 420.949333 0 0 1-72.96-35.370667c113.322667 8.746667 261.376-17.365333 361.173334-110.762667 0 0 190.250667-152.021333 52.565333-401.493333 0 0 22.186667 100.565333-6.101333 183.253333 0 0-26.965333 112.469333-146.858667 145.109334-176.64 48.128-377.813333-75.434667-461.952-135.381334-6.357333-61.525333-0.725333-125.098667 21.888-187.178666 33.408-91.946667 96.298667-163.754667 173.056-211.882667-19.157333 134.314667-3.968 258.005333 17.834667 309.802667 29.312 69.461333 80.170667 150.528 179.456 160.853333 99.285333 10.453333 154.026667-82.474667 154.026666-82.474667 50.986667-77.397333 58.965333-188.544 58.197334-191.232-0.810667-2.730667-13.568-10.069333-13.568-10.069333-34.304 138.752-90.837333 185.088-90.837334 185.088-89.130667 86.058667-152.277333 26.410667-152.277333 26.410667-67.84-72.96-20.309333-191.402667-20.309333-191.402667 26.581333-80.64 103.978667-198.741333 191.744-258.816 14.634667 3.626667 29.312 5.888 43.776 11.093333a418.773333 418.773333 0 0 1 138.965333 84.48C731.306667 221.866667 627.754667 271.36 627.754667 271.36c-164.266667 69.205333-175.36 173.824-175.36 173.824-16.981333 107.818667 68.608 62.165333 68.608 62.165333 88.021333-42.922667 131.328-176.554667 131.328-176.554666a98.005333 98.005333 0 0 0-49.152 3.114666c-35.157333 86.784-106.88 122.453333-106.88 122.453334-28.202667 14.933333-34.773333-11.477333-34.773334-11.477334-4.778667-19.754667 20.394667-23.125333 20.394667-23.125333 39.125333-15.232 64.085333-56.277333 69.76-73.045333 5.632-16.810667 16.085333-18.133333 16.085333-18.133334a508.16 508.16 0 0 1 102.4-20.906666c66.474667-8.192 168.234667 23.509333 168.234667 23.509333 22.826667 9.216 44.714667 16.042667 64.170667 21.546667 37.290667 93.226667 43.178667 199.296 6.229333 301.056-79.701333 219.306667-321.962667 332.458667-541.098667 252.586666z" fill="#2AABEF" p-id="12525"></path></svg>