<?xml version="1.0" standalone="no"?><svg xmlns:xlink="http://www.w3.org/1999/xlink" width="200" height="200" version="1.1" viewBox="0 0 1024 1024" xmlns="http://www.w3.org/2000/svg"><path fill="#294172" d="M992 512c0-265.088-214.912-480-480-480C247.04 32 32.192 246.72 32 511.68v371.456A109.12 109.12 0 0 0 141.12 992h371.072C777.216 991.904 992 777.056 992 512"/><path fill="#3C6EB4" d="M652.928 145.664a225.408 225.408 0 0 0-225.184 225.152v119.52H308.736A225.44 225.44 0 0 0 83.584 715.52a225.44 225.44 0 0 0 225.152 225.152A225.44 225.44 0 0 0 533.92 715.52V596h119.008a225.44 225.44 0 0 0 225.184-225.184 225.44 225.44 0 0 0-225.184-225.152zM428.608 715.52a120 120 0 0 1-119.872 119.84 120 120 0 0 1-119.84-119.84 120 120 0 0 1 119.84-119.872h119.04v0.32h0.8V715.52z m224.32-224.832h-119.04v-0.32h-0.8V370.816a120 120 0 0 1 119.84-119.84 120 120 0 0 1 119.84 119.84 120 120 0 0 1-119.84 119.872z"/><path fill="#FFFFFF" d="M702.72 152.48a179.2 179.2 0 0 0-49.792-6.72 225.28 225.28 0 0 0-225.28 225.28v119.424H333.28c-29.408 0-53.184 23.136-53.152 52.48 0 29.184 23.488 52.416 52.608 52.416h78.112c9.28 0 16.8 7.52 16.8 16.768v103.328a118.944 118.944 0 0 1-118.912 118.72c-22.208 0-27.712-2.88-42.88-2.88-31.872 0-53.184 21.344-53.184 50.688 0 24.32 20.8 45.216 46.304 51.84a179.2 179.2 0 0 0 49.76 6.72 225.28 225.28 0 0 0 225.28-225.28V595.872h94.368c29.408 0 53.184-23.136 53.152-52.48 0-29.216-23.488-52.416-52.608-52.416h-78.112a16.768 16.768 0 0 1-16.8-16.768v-103.36a118.944 118.944 0 0 1 118.912-118.72c22.208 0 27.712 2.944 42.88 2.944 31.872 0 53.184-21.376 53.184-50.72 0-24.32-20.8-45.216-46.304-51.872"/></svg>