<svg t="1682307261499" class="icon" viewBox="0 0 1024 1024" version="1.1" xmlns="http://www.w3.org/2000/svg" p-id="11813" width="200" height="200"><path d="M343.466667 853.333333c-43.178667 0-86.4-17.28-120.96-51.84-69.12-69.12-69.12-177.152 0-246.272l90.752-90.752 60.458666 60.501334-90.709333 90.709333c-34.56 34.56-34.56 86.442667 0 121.002667s86.4 34.56 120.96 0l121.002667-121.002667a85.333333 85.333333 0 0 0 25.898666-60.458667c0-21.632-8.618667-43.221333-21.589333-60.501333l-47.530667-43.221333 60.501334-60.458667 47.530666 47.488c30.250667 30.293333 47.530667 73.472 47.530667 121.002667 0 47.530667-17.28 90.752-51.84 120.96l-121.002667 121.002666C434.218667 836.053333 386.688 853.333333 343.509333 853.333333z m138.282666-220.373333l-47.530666-43.178667c-69.12-69.12-69.12-177.152 0-246.272l121.002666-121.002666c69.12-69.12 177.152-69.12 246.272 0s69.12 177.152 0 246.272l-90.752 90.752-60.458666-60.501334 90.709333-90.709333c34.56-34.56 34.56-86.442667 0-121.002667s-90.709333-34.56-120.96 0l-125.312 116.650667c-34.56 34.56-34.56 86.442667 0 121.002667l47.530667 47.530666-60.501334 60.458667z" fill="#42a5f5" p-id="11814"></path></svg>