<?xml version="1.0" standalone="no"?><!DOCTYPE svg PUBLIC "-//W3C//DTD SVG 1.1//EN" "http://www.w3.org/Graphics/SVG/1.1/DTD/svg11.dtd"><svg t="1680514281452" class="icon" viewBox="0 0 1024 1024" version="1.1" xmlns="http://www.w3.org/2000/svg" p-id="9654" xmlns:xlink="http://www.w3.org/1999/xlink" width="200" height="200"><path d="M192 64h448l256 256v576a64 64 0 0 1-64 64H192a64 64 0 0 1-64-64V128a64 64 0 0 1 64-64z" fill="#42a5f5" p-id="9655"></path><path d="M640 64l256 256h-192a64 64 0 0 1-64-64V64z" fill="#6AA1FF" p-id="9656"></path><path d="M560.832 544c9.184 4.48 17.792 10.144 25.536 17.088 20.416 18.304 31.136 42.016 32.224 65.984l0.064 2.208a86.4 86.4 0 0 1-0.64 12.512l-0.96 6.24-1.344 5.888-1.28 4.32-2.144 6.08c-5.312 13.408-13.952 25.984-25.92 36.736l-78.016 69.952c-43.104 38.656-112.96 38.656-156.032 0-43.104-38.624-43.104-101.28 0-139.936l70.08-64c-2.816 17.664 5.504 35.392 12.096 48.576l-48.736 45.44c-24.64 22.08-24.64 57.856 0 79.936 23.872 21.44 62.112 22.08 86.88 1.92l80.32-71.872 3.136-3.136 3.392-3.776 2.304-3.072 1.6-2.4 1.44-2.464 1.28-2.464a52.224 52.224 0 0 0 5.152-26.176 53.184 53.184 0 0 0-14.24-32.448l-4.352-4.288a26.144 26.144 0 0 1-2.784-36.608l3.04-3.136 7.904-7.104zM704 412.992c43.104 38.624 43.104 101.28 0 139.936l-65.536 62.72c0-24.8-7.904-37.056-14.656-48.608l46.752-44.096c24.64-22.08 24.64-57.888 0-80-23.872-21.376-62.112-22.048-86.88-1.92L503.36 512.96l-3.424 3.328-3.52 4.064-2.464 3.392-2.688 4.384-1.024 2.048a52.384 52.384 0 0 0-5.28 20.48l-0.064 2.24c0 12.8 4.8 25.6 14.4 36l4.32 4.288c10.976 10.048 11.904 25.6 2.784 36.608l-3.04 3.136-7.904 7.104a110.272 110.272 0 0 1-25.536-17.088c-18.496-16.608-29.056-37.632-31.68-59.296l-0.576-8.832a85.92 85.92 0 0 1 0.608-12.576l0.704-4.736 1.504-7.04 0.896-3.2 2.624-7.552a97.92 97.92 0 0 1 25.92-36.736l78.016-69.952c43.104-38.656 112.96-38.656 156.032 0z" fill="#FFFFFF" p-id="9657"></path></svg>