<?xml version="1.0" standalone="no"?><svg xmlns:xlink="http://www.w3.org/1999/xlink" width="200" height="200" version="1.1" viewBox="0 0 1024 1024" xmlns="http://www.w3.org/2000/svg"><path fill="#ffca28" d="M426.666667 170.666667H170.666667c-47.36 0-85.333333 37.973333-85.333334 85.333333v512c0 46.805333 38.528 85.333333 85.333334 85.333333h682.666666c46.805333 0 85.333333-38.528 85.333334-85.333333V341.333333a85.333333 85.333333 0 0 0-85.333334-85.333333h-341.333333l-85.333333-85.333333z"/><path fill="#ffffff" d="M911.146667 836.394667c26.026667 0 47.061333-21.248 47.061333-47.274667l0.256-236.458667c0-26.24-21.290667-47.274667-47.317333-47.274666h-378.325334c-26.24 0-47.274667 21.034667-47.274666 47.274666v236.458667c0 26.026667 21.034667 47.274667 47.274666 47.274667h-94.549333v47.317333h567.466667v-47.317333z m-165.546667-83.456v-51.754667c-65.706667 0-108.970667 20.053333-141.866667 64.298667 13.226667-63.146667 49.92-126.037333 141.909334-138.794667v-50.346667l94.549333 88.192z" data-spm-anchor-id="a313x.7781069.0.i27"/></svg>