<?xml version="1.0" standalone="no"?><!DOCTYPE svg PUBLIC "-//W3C//DTD SVG 1.1//EN" "http://www.w3.org/Graphics/SVG/1.1/DTD/svg11.dtd"><svg t="1680918850148" class="icon" viewBox="0 0 1024 1024" version="1.1" xmlns="http://www.w3.org/2000/svg" p-id="14099" xmlns:xlink="http://www.w3.org/1999/xlink" width="200" height="200"><path d="M688.3328 368.64H73.1136a40.96 40.96 0 0 0-39.7312 50.9952l119.21408 471.04A40.96 40.96 0 0 0 192.32768 921.6h615.2192a40.96 40.96 0 0 0 39.71072-50.9952l-119.21408-471.04a40.96 40.96 0 0 0-39.7312-30.9248z" fill="#fbc02d" p-id="14100" data-spm-anchor-id="a313x.7781069.0.i38" class=""></path><path d="M73.1136 348.16h615.2192a61.44 61.44 0 0 1 59.55584 46.36672l119.21408 471.04A61.44 61.44 0 0 1 807.54688 942.08H192.3072a61.44 61.44 0 0 1-59.5968-46.36672l-119.1936-471.04A61.44 61.44 0 0 1 73.09312 348.16z m615.2192 40.96H73.1136a20.48 20.48 0 0 0-19.8656 25.4976l119.1936 471.04a20.48 20.48 0 0 0 19.8656 15.4624h615.2192a20.48 20.48 0 0 0 19.8656-25.4976l-119.1936-471.04a20.48 20.48 0 0 0-19.8656-15.4624z" fill="#fbc02d" p-id="14101" data-spm-anchor-id="a313x.7781069.0.i31" class=""></path><path d="M286.72 102.4h430.08l129.92512 117.84192A40.96 40.96 0 0 1 860.16 250.5728V860.16a40.96 40.96 0 0 1-40.96 40.96H286.72a40.96 40.96 0 0 1-40.96-40.96V143.36a40.96 40.96 0 0 1 40.96-40.96z" fill="#FFFFFF" p-id="14102"></path><path d="M860.4672 205.06624L724.6848 81.92H286.72a61.44 61.44 0 0 0-61.44 61.44v716.8a61.44 61.44 0 0 0 61.44 61.44h532.48a61.44 61.44 0 0 0 61.44-61.44V250.5728a61.44 61.44 0 0 0-20.1728-45.50656zM286.72 122.88h422.1952l124.04736 112.51712a20.48 20.48 0 0 1 6.71744 15.17568V860.16a20.48 20.48 0 0 1-20.48 20.48H286.72a20.48 20.48 0 0 1-20.48-20.48V143.36a20.48 20.48 0 0 1 20.48-20.48z" fill="#fbc02d" p-id="14103" data-spm-anchor-id="a313x.7781069.0.i32" class=""></path><path d="M737.28 102.4v122.88h122.88v40.96h-163.84V102.4z" fill="#fbc02d" p-id="14104" data-spm-anchor-id="a313x.7781069.0.i33" class=""></path><path d="M588.8 291.84h-71.68v133.12h-40.96v-133.14048l-71.68 0.02048 92.16-122.88 92.16 122.88z" fill="#000000" p-id="14105"></path><path d="M327.22944 471.04H958.0544a40.96 40.96 0 0 1 39.03488 53.37088l-117.28896 368.64A40.96 40.96 0 0 1 840.76544 921.6H209.94048a40.96 40.96 0 0 1-39.03488-53.37088l117.28896-368.64A40.96 40.96 0 0 1 327.22944 471.04z" fill="#fbc02d" p-id="14106" data-spm-anchor-id="a313x.7781069.0.i36" class=""></path><path d="M958.0544 450.56H327.22944a61.44 61.44 0 0 0-58.55232 42.8032l-117.28896 368.64A61.44 61.44 0 0 0 209.94048 942.08h630.82496a61.44 61.44 0 0 0 58.55232-42.8032l117.28896-368.64A61.44 61.44 0 0 0 958.0544 450.56z m-630.82496 40.96H958.0544a20.48 20.48 0 0 1 19.51744 26.68544l-117.28896 368.64a20.48 20.48 0 0 1-19.51744 14.27456H209.94048a20.48 20.48 0 0 1-19.51744-26.68544l117.28896-368.64a20.48 20.48 0 0 1 19.51744-14.27456z" fill="#fbc02d" p-id="14107" data-spm-anchor-id="a313x.7781069.0.i30" class=""></path><path d="M406.44608 801.5872c18.432 0 32.768-3.6864 43.008-11.0592 10.24-7.63904 15.36-17.96096 15.36-30.9248 0-13.37344-6.28736-23.90016-18.8416-31.5392-5.3248-3.2768-18.10432-8.04864-38.2976-14.336-13.39392-3.95264-21.85216-6.9632-25.3952-9.0112-7.24992-3.82976-10.8544-9.0112-10.8544-15.5648 0-7.3728 3.13344-12.6976 9.4208-15.9744 5.18144-2.8672 12.55424-4.3008 22.1184-4.3008 11.0592 0 19.37408 2.10944 24.9856 6.3488 5.59104 3.95264 9.4208 10.79296 11.4688 20.48h22.1184c-1.37216-15.9744-7.168-27.70944-17.408-35.2256-9.4208-7.22944-22.7328-10.8544-39.936-10.8544-15.5648 0-28.4672 3.4816-38.7072 10.4448-10.79296 7.3728-16.1792 17.46944-16.1792 30.3104s5.59104 22.58944 16.7936 29.2864c4.096 2.19136 15.27808 6.20544 33.5872 12.0832 15.9744 4.9152 25.66144 8.192 29.0816 9.8304 9.27744 4.77184 13.9264 11.20256 13.9264 19.2512 0 6.5536-3.2768 11.6736-9.8304 15.36-6.84032 3.82976-15.64672 5.7344-26.4192 5.7344-12.16512 0-21.23776-2.2528-27.2384-6.7584-6.5536-4.9152-10.6496-13.16864-12.288-24.7808h-22.1184c1.2288 18.432 7.84384 31.9488 19.8656 40.5504 10.24 7.10656 24.1664 10.6496 41.7792 10.6496z m101.376-2.8672v-65.536h72.704v-19.0464h-72.704v-42.5984h77.0048v-19.0464h-99.328V798.72h22.3232z m156.4672 0v-127.1808h48.7424v-19.0464h-119.808v19.0464h48.9472V798.72h22.1184z m88.6784 0v-56.9344h37.888c35.08224 0 52.6336-14.9504 52.6336-44.8512 0-29.63456-17.408-44.4416-52.224-44.4416h-60.6208V798.72h22.3232z m36.4544-75.9808h-36.4544v-51.2h36.4544c10.91584 0 18.90304 2.048 23.9616 6.144 5.18144 3.6864 7.7824 10.09664 7.7824 19.2512 0 8.86784-2.53952 15.42144-7.5776 19.6608-5.05856 4.096-13.1072 6.144-24.1664 6.144z" fill="#000000" p-id="14108"></path></svg>