<?xml version="1.0" standalone="no"?><svg xmlns:xlink="http://www.w3.org/1999/xlink" width="200" height="200" version="1.1" viewBox="0 0 1024 1024" xmlns="http://www.w3.org/2000/svg"><path fill="#ffca28" d="M880 176h-297.6l-67.2 134.4H140.8v537.6h806.4v-672z m0 134.4h-262.4l35.2-67.2h227.2z" data-spm-anchor-id="a313x.7781069.0.i35"/><path fill="#ffca28" d="M823.744 316.8H430.112v672h559.2V484.8L823.744 316.8z" data-spm-anchor-id="a313x.7781069.0.i38"/><path fill="#ffffff" d="M946.464 949.216H475.232V356.416h321.76l152 151.968v440.832h-2.528z" data-spm-anchor-id="a313x.7781069.0.i39"/><path fill="#2c2c2c" d="M596.864 638.24c38.016 0 61.504-35.2 61.504-87.904 0-51.488-19.2-82.624-57.6-82.624s-61.728 35.2-61.728 87.904c0.032 51.584 19.296 82.624 57.824 82.624zM567.04 550.4c0-37.504 10.304-58.88 31.68-58.88 15.584 0 25.088 13.216 29.312 35.36l-60.8 31.424a76.8 76.8 0 0 1-0.192-7.904z m32 64c-15.296 0-25.088-12.8-29.312-34.336l60.8-31.424v6.88c-0.128 37.568-10.144 58.88-31.552 58.88zM845.472 634.72l2.4-24.544h-39.616v-144.32l-28.224 2.4v19.2l-40.672 4.224 0.544 21.376L780.032 512v98.208h-44.384v24.576l109.824-0.064zM657.056 862.72l2.4-24.544h-39.584v-144.352l-28.256 2.4v19.2l-40.64 4.224 0.512 21.408 40.128-1.056v98.208h-44.352v24.576l109.792-0.064zM787.68 866.144c38.016 0 61.504-35.2 61.504-87.904 0-51.488-19.2-82.624-57.6-82.624s-61.76 35.2-61.76 87.904c0 51.552 19.2 82.72 57.856 82.72z m-29.824-87.84c0-37.504 10.304-58.88 31.68-58.88 15.584 0 25.088 13.184 29.312 35.36l-60.8 31.424a76.8 76.8 0 0 1-0.192-7.904z m32 64c-15.328 0-25.088-12.8-29.312-34.336l60.8-31.424v6.848c-0.128 37.696-10.176 59.008-31.552 59.008z" data-spm-anchor-id="a313x.7781069.0.i41"/></svg>