<svg width="200" height="200" version="1.1" viewBox="0 0 1024 1024" xmlns="http://www.w3.org/2000/svg"><path fill="#fbc02d" d="M257 34.133c58.027 0 109.227 37.547 129.707 92.16v6.827l3.413 13.653v3.414c6.827 13.653 20.48 20.48 34.133 20.48H922.6c13.653 0 30.72 3.413 44.373 6.826h6.827c3.413 0 6.827 0 10.24-3.413 3.413 0 6.827-6.827 6.827-10.24V102.4c0-58.027-44.374-102.4-102.4-102.4H257c-10.24 0-17.067 6.827-17.067 17.067S246.76 34.133 257 34.133z" data-spm-anchor-id="a313x.7781069.0.i1"/><path fill="#fbc02d" d="M922.6 819.2c58.027 0 102.4-44.373 102.4-102.4V307.2c0-58.027-44.373-102.4-102.4-102.4H424.253c-30.72 0-54.613-17.067-64.853-44.373l-3.413-20.48C338.92 95.573 301.373 68.267 257 68.267H103.4C45.373 68.267 1 112.64 1 170.667V716.8c0 58.027 44.373 102.4 102.4 102.4h375.467v34.133H461.8c-10.24 0-17.067 6.827-17.067 17.067v17.067h-17.066c-10.24 0-17.067 6.826-17.067 17.066v51.2H18.067C7.827 955.733 1 962.56 1 972.8s6.827 17.067 17.067 17.067H410.6v17.066c0 10.24 6.827 17.067 17.067 17.067H564.2c10.24 0 17.067-6.827 17.067-17.067v-17.066h426.666c10.24 0 17.067-6.827 17.067-17.067s-6.827-17.067-17.067-17.067H581.267v-51.2c0-10.24-6.827-17.066-17.067-17.066h-17.067V870.4c0-10.24-6.826-17.067-17.066-17.067H513V819.2h409.6z" data-spm-anchor-id="a313x.7781069.0.i0"/><path fill="#FFFFFF" d="M511.83 696V525.9h103.762v20.898h-80.676v49.815h62.208v20.898h-62.208V696H511.83z m180.867 0V546.798h-49.572V525.9h122.229v20.898h-49.572V696h-23.085z m115.742 0V525.9h56.133q27.216 0 42.403 13.244 15.188 13.243 15.188 41.917 0 28.188-15.31 41.796-15.308 13.608-42.281 13.608h-31.833V696h-24.3z m24.3-80.19h28.43q18.712 0 27.946-8.505 9.234-8.505 9.234-26.001 0-17.739-8.87-26.244-8.87-8.505-28.31-8.505h-28.43v69.255z"/></svg>