<?xml version="1.0" standalone="no"?><svg xmlns:xlink="http://www.w3.org/1999/xlink" width="200" height="200" version="1.1" viewBox="0 0 1024 1024" xmlns="http://www.w3.org/2000/svg"><path fill="#E6E9ED" d="M1023.6 234.88V128.278c0-23.544-19.078-42.624-42.622-42.624H170.956c-23.544 0-42.654 19.078-42.654 42.624v106.604H1023.6z"/><path fill="#F5F7FA" d="M1023.6 810.448H128.3V170.932H1023.6v446.29z"/><path fill="#ED5564" d="M213.576 128.278c0 11.772-9.554 21.326-21.326 21.326s-21.294-9.554-21.294-21.326c0-11.774 9.524-21.296 21.294-21.296s21.326 9.522 21.326 21.296z"/><path fill="#FFCE54" d="M277.528 128.278c0 11.772-9.554 21.326-21.328 21.326-11.772 0-21.294-9.554-21.294-21.326A21.28 21.28 0 0 1 256.2 106.982c11.772-0.002 21.328 9.522 21.328 21.296z"/><path fill="#A0D468" d="M341.476 128.278c0 11.772-9.554 21.326-21.326 21.326s-21.296-9.554-21.296-21.326c0-11.774 9.526-21.296 21.296-21.296s21.326 9.522 21.326 21.296z"/><path fill="#48CFAD" d="M597.278 597.238h341.076v213.208H597.278z"/><path fill="#5D9CEC" d="M213.576 256.176h724.778v298.47H213.576z"/><path fill="#434A54" d="M789.126 384.076H362.804c-11.772 0-21.328 9.554-21.328 21.328 0 11.772 9.556 21.326 21.328 21.326h426.322c11.774 0 21.328-9.554 21.328-21.326 0.002-11.774-9.554-21.328-21.328-21.328z"/><path fill="#434A54" d="M725.178 706.528H0.4V469.354l127.9-85.278h468.978l127.9 85.278z"/><path fill="#656D78" d="M0.4 469.354h724.778V725.14H0.4z"/><path fill="#A0D468" d="M639.9 575.944c0 23.542-19.078 42.652-42.624 42.652s-42.624-19.11-42.624-42.652c0-23.544 19.078-42.64 42.624-42.64s42.624 19.094 42.624 42.64z"/><path fill="#434A54" d="M164.708 539.548a21.314 21.314 0 0 0-30.164 0L91.92 582.186c-8.338 8.306-8.338 21.794 0 30.164a21.408 21.408 0 0 0 15.082 6.244c5.434 0 10.898-2.124 15.05-6.244l42.654-42.654c8.31-8.306 8.31-21.856 0.002-30.148zM249.956 539.548c-8.306-8.338-21.826-8.338-30.132 0L177.2 582.188c-8.338 8.306-8.338 21.794 0 30.164a21.39 21.39 0 0 0 15.05 6.244c5.464 0 10.93-2.124 15.082-6.244l42.624-42.654c8.336-8.308 8.336-21.858 0-30.15zM335.232 539.548c-8.338-8.338-21.826-8.338-30.132 0l-42.654 42.638c-8.306 8.306-8.306 21.794 0 30.164 4.152 4.122 9.618 6.244 15.082 6.244s10.898-2.124 15.082-6.244l42.624-42.654c8.334-8.306 8.334-21.856-0.002-30.148z"/><path fill="#656D78" d="M0.4 682.546h724.778v255.798H0.4z"/><path fill="#434A54" d="M0.4 661.188h724.778v42.654H0.4z"/><path fill="#A0D468" d="M639.9 831.742c0 23.544-19.078 42.654-42.624 42.654s-42.624-19.11-42.624-42.654c0-23.542 19.078-42.654 42.624-42.654s42.624 19.112 42.624 42.654z"/><path fill="#434A54" d="M164.708 795.334c-8.338-8.306-21.826-8.306-30.164 0L91.92 837.988c-8.338 8.304-8.338 21.794 0 30.164a21.408 21.408 0 0 0 15.082 6.244c5.434 0 10.898-2.124 15.05-6.244l42.654-42.654c8.31-8.306 8.31-21.86 0.002-30.164zM249.956 795.334c-8.306-8.306-21.826-8.306-30.132 0L177.2 837.988c-8.338 8.304-8.338 21.794 0 30.164a21.39 21.39 0 0 0 15.05 6.244c5.464 0 10.93-2.124 15.082-6.244l42.624-42.654c8.336-8.306 8.336-21.86 0-30.164zM335.232 795.334c-8.338-8.306-21.826-8.306-30.132 0l-42.654 42.654c-8.306 8.304-8.306 21.794 0 30.164 4.152 4.122 9.618 6.244 15.082 6.244s10.898-2.124 15.082-6.244l42.624-42.654c8.334-8.306 8.334-21.86-0.002-30.164z"/></svg>