<svg width="200" height="200" version="1.1" viewBox="0 0 1024 1024" xmlns="http://www.w3.org/2000/svg"><path fill="#FF7700" d="M614.4 341.333333c36.992 0 68.266667 31.274667 68.266667 68.266667v546.133333c0 36.992-31.274667 68.266667-68.266667 68.266667H68.266667C31.274667 1024 0 992.725333 0 955.733333V409.6C0 372.608 31.274667 341.333333 68.266667 341.333333h546.133333z m-250.325333 139.392H318.592V554.666667h-153.6v210.474666h45.482667V742.4h108.117333v145.066667h45.482667v-145.066667h108.117333v22.741333h45.482667V554.666667h-153.6v-73.941334zM318.592 597.333333v99.541334H210.474667V597.333333h108.117333z m153.6 0v99.541334H364.074667V597.333333h108.117333z"/><path fill="#FF7700" d="M341.333333 614.4V68.266667C341.333333 31.274667 372.608 0 409.6 0h546.133333c36.992 0 68.266667 31.274667 68.266667 68.266667v546.133333c0 36.992-31.274667 68.266667-68.266667 68.266667H409.6c-36.992 0-68.266667-31.274667-68.266667-68.266667z"/><path fill="#FFFFFF" d="M972.8 614.4V68.266667c0-8.533333-8.533333-17.066667-17.066667-17.066667H409.6c-8.533333 0-17.066667 8.533333-17.066667 17.066667v546.133333c0 8.533333 8.533333 17.066667 17.066667 17.066667h546.133333c8.533333 0 17.066667-8.533333 17.066667-17.066667z" data-spm-anchor-id="a313x.7781069.0.i5"/><path fill="#FF7700" d="M896 482.133333h-54.058667V376.874667c0-22.741333 0-36.949333-2.816-42.666667-2.858667-5.674667-5.717333-11.349333-11.392-14.208s-11.392-5.674667-19.925333-5.674667-17.066667 2.816-25.6 8.533334c-8.533333 5.674667-14.208 11.349333-14.208 19.882666-2.858667 8.533333-2.858667 25.6-2.858667 48.384v93.866667h-54.016v-213.333333h51.2V302.933333a81.066667 81.066667 0 0 1 68.266667-34.133333c11.349333 0 22.741333 2.858667 34.133333 5.674667 11.349333 5.717333 17.066667 11.392 22.741334 17.066666 5.674667 5.717333 8.533333 14.250667 11.392 22.784 2.816 8.533333 2.816 19.882667 2.816 36.949334L896 482.133333zM460.8 482.133333V192h213.333333v48.341333h-153.6V302.933333h145.066667v48.341334h-145.066667V430.933333H682.666667v48.341334z"/></svg>