<svg width="200" height="200" version="1.1" viewBox="0 0 1024 1024" xmlns="http://www.w3.org/2000/svg"><path fill="#FF7700" d="M955.733333 0c36.992 0 68.266667 31.274667 68.266667 68.266667v546.133333c0 36.992-31.274667 68.266667-68.266667 68.266667H409.6c-36.992 0-68.266667-31.274667-68.266667-68.266667V68.266667C341.333333 31.274667 372.608 0 409.6 0h546.133333z m-128 273.066667a81.066667 81.066667 0 0 0-68.266666 34.133333v-31.274667h-51.2v213.333334h54.058666V387.114667c0-18.645333 0.341333-32.64 2.816-40.106667 0-8.533333 5.717333-14.208 14.250667-19.882667 8.533333-5.717333 17.066667-8.533333 25.6-8.533333 8.533333 0 14.208 2.816 19.882667 5.674667 5.717333 2.858667 8.533333 8.533333 11.392 14.208 2.858667 5.717333 2.858667 19.925333 2.858666 42.666666V486.4h54.016l5.717334-130.858667c0-17.066667 0-28.416-2.858667-36.949333-2.858667-8.533333-5.674667-17.066667-11.392-22.784-5.674667-5.674667-11.349333-11.349333-22.741333-17.066667-11.392-2.816-22.741333-5.674667-34.133334-5.674666z m-156.458666-76.8h-213.333334v290.133333l221.866667-2.858667V435.2h-162.133333V355.541333h145.066666V307.2h-145.066666V244.608h153.6V196.266667z"/><path fill="#FF7700" d="M0 955.733333V409.6C0 372.608 31.274667 341.333333 68.266667 341.333333h546.133333c36.992 0 68.266667 31.274667 68.266667 68.266667v546.133333c0 36.992-31.274667 68.266667-68.266667 68.266667H68.266667C31.274667 1024 0 992.725333 0 955.733333z"/><path fill="#FFFFFF" d="M631.466667 955.733333V409.6c0-8.533333-8.533333-17.066667-17.066667-17.066667H68.266667c-8.533333 0-17.066667 8.533333-17.066667 17.066667v546.133333c0 8.533333 8.533333 17.066667 17.066667 17.066667h546.133333c8.533333 0 17.066667-8.533333 17.066667-17.066667z"/><path fill="#FF7700" d="M318.592 480.725333h45.482667V554.666667h153.6v210.474666h-45.482667V742.4H364.074667v145.066667H318.592v-145.066667H210.474667v22.741333H164.992V554.666667h153.6v-73.941334z m-108.117333 216.149334h108.117333V597.333333H210.474667v99.541334z m153.6 0h108.117333V597.333333H364.074667v99.541334z"/></svg>