<svg width="200" height="200" version="1.1" viewBox="0 0 1066 1024" xmlns="http://www.w3.org/2000/svg"><path fill="currentColor" d="M888.874667 640c-5.674667-24.021333 15.488-42.666667 44.458666-42.666667 23.253333 0 44.458667 18.645333 44.458667 42.666667v256c0 43.946667-48 85.333333-88.917333 85.333333h-266.666667c-23.253333 0-44.416-18.645333-44.416-42.666666 0-21.973333 21.162667-40.618667 44.416-42.666667h266.666667c-10.88 2.048-5.674667-2.474667 0 0v-256zM400 896a41.984 41.984 0 0 1 44.458667 42.666667c0 23.338667-19.2 42.666667-44.458667 42.666666H177.792c-45.482667 0-88.917333-42.88-88.917333-85.333333V426.666667c0-23.338667 19.2-42.666667 44.458666-42.666667 21.973333 0 41.130667 19.328 44.458667 42.666667v469.333333c-3.328-5.717333 1.365333-1.066667 0 0h222.208z"/><path fill="currentColor" d="M75.690667 542.378667c-17.493333 16.554667-45.653333 16.384-62.890667-0.384a41.514667 41.514667 0 0 1 0.426667-60.373334l421.546666-399.573333A141.781333 141.781333 0 0 1 533.333333 42.666667c36.992 0 72.490667 14.165333 98.56 39.381333l421.546667 399.573333a41.514667 41.514667 0 0 1 0.426667 60.373334 45.781333 45.781333 0 0 1-62.890667 0.384l-421.546667-399.573334A50.986667 50.986667 0 0 0 533.333333 128c-13.653333 0-26.666667 5.333333-36.096 14.805333l-421.546666 399.573334z"/><path fill="currentColor" d="M483.328 937.685333c0 24.106667-18.645333 43.648-41.642667 43.648-23.04 0-41.685333-19.541333-41.685333-43.648v-226.218666c0-85.162667 58.026667-156.8 133.333333-156.8s133.333333 71.68 133.333334 156.8v226.218666c0 24.106667-18.645333 43.648-41.685334 43.648-22.997333 0-41.642667-19.541333-41.642666-43.648v-226.218666c0-39.850667-24.064-69.546667-50.005334-69.546667s-50.005333 29.696-50.005333 69.546667v226.218666z"/></svg>