<svg width="200" height="200" version="1.1" viewBox="0 0 1024 1024" xmlns="http://www.w3.org/2000/svg"><path fill="#000" d="M512 512m-445 0a445 445 0 1 0 890 0 445 445 0 1 0-890 0Z"/><path fill="#22D0FF" d="M442.3 351.4l19.1 35 35 19.1-35 19.1-19.1 35-19.2-35-35-19.1 35-19.1zM605.7 295.6l12.7 23.3 23.4 12.7-23.4 12.8-12.7 23.3-12.8-23.3-23.3-12.8 23.3-12.7z"/><path fill="#B8DDFF" d="M358.7 692.4c-6.4 0-12.8-2.3-17.9-6.8-11.8-10.5-11.1-29.5 0.1-40.7l243.6-242.5c10.6-10.5 27.7-10.5 38.3 0.1 10.5 10.6 10.5 27.7-0.1 38.3l-245 243.8c-5.2 5.2-12.1 7.8-19 7.8z"/><path fill="#22D0FF" d="M674.4 489.4l19.1 34.9 35 19.2-35 19.1-19.1 35-19.2-35-35-19.1 35-19.2z"/><path fill="#148AF4" d="M402.8 583.3l-63.2 62.9c-10.6 10.5-10.6 27.7-0.1 38.3 5.3 5.3 12.2 8 19.2 8 6.9 0 13.8-2.6 19.1-7.9l63.3-63-38.3-38.3z"/></svg>