<?xml version="1.0" standalone="no"?><svg xmlns:xlink="http://www.w3.org/1999/xlink" width="200" height="200" version="1.1" viewBox="0 0 1024 1024" xmlns="http://www.w3.org/2000/svg"><path fill="#002FA7" d="M886.389379 399.204061c-20.791878 25.270129-74.211011 35.50613-116.754393 22.391253-40.624131-12.475127-53.739008-40.944006-31.667629-63.335259 21.111753-21.431628 68.45326-31.02788 108.117766-21.111754 41.263881 10.236002 60.456384 37.745256 40.304256 61.735885m-187.446778-51.499883c-22.071378 21.751503-69.732761 31.02788-104.279266 20.472003-19.192503-5.757751-29.74838-17.913003-30.38813-28.149004-0.319875-7.677001-12.795002-15.034127-26.229754-18.872628-13.754627-3.838501-29.428504-3.518626-45.422257-1.599375-4.158376 0.319875-12.475127 2.239125-17.913003 3.8385-14.714252 4.798126-27.189379 9.916127-37.745255 18.232878-13.114877 10.555877-17.593128 28.788754-17.273253 35.826006 0.319875 9.596251 9.596251 17.913003 23.990629 23.031003 13.754627 5.118001 31.02788 5.757751 48.301132 3.198751 21.111753-5.437876 44.142757-5.757751 63.015385 0.63975 34.546505 11.515502 43.183132 41.583756 17.273252 67.17376-27.189379 26.549629-79.648887 36.465756-114.515267 22.071378-19.192503-7.996876-26.229754-23.031004-27.189379-36.78563-0.959625-10.555877-10.875752-19.192503-24.630379-24.630379-13.754627-5.437876-29.74838-5.118001-47.661382-3.838501-2.239125 0-13.114877 2.239125-19.512378 3.838501-8.956501 2.239125-27.509254 7.357126-42.863257 21.751503-12.155252 11.515502-17.593128 22.391253-20.791878 29.10863-1.91925 3.838501-3.838501 12.155252-4.158376 15.354002-0.319875 12.155252 6.717376 23.031004 20.791878 30.068255 13.754627 7.037251 31.987505 8.636626 50.540258 6.077626 23.350879-6.077626 47.981257-5.437876 66.853885 3.518625 34.86638 16.313627 39.024756 55.018508 6.077626 87.006013-34.22663 33.58688-92.763764 44.142757-127.310269 23.670754-18.872628-11.195627-24.310504-28.468879-21.751503-48.301132s0-4.798126-0.639751-7.357127c0 0-0.63975-3.838501-3.19875-8.956501-3.518626-6.717376-9.276376-12.475127-17.273253-16.633502-13.434752-7.357126-31.347755-9.276376-49.900507-6.717376-23.350879 6.077626-46.062007 5.118001-60.77626-3.838501-25.590004-15.354002-17.913003-47.661382 14.714253-71.971886 16.953378-12.475127 37.425381-20.791878 56.937758-23.990629 18.552753-3.518626 37.425381-11.515502 52.459508-23.031003 14.714252-11.195627 22.391253-23.350879 23.031004-33.906755s0-5.757751-0.63975-11.515502c-0.63975-9.276376 0-18.232878 8.636626-27.829129 5.437876-6.397501 17.593128-12.475127 30.708005-14.714253 8.956501-1.599375 20.472003-1.2795 27.189379-1.599375 5.757751 0 15.673877-1.2795 19.192503-2.239125 13.114877-3.838501 21.111753-7.996876 31.02788-15.673878 9.916127-7.677001 16.313627-15.673877 17.273252-23.031003 0-1.599375 0.63975-8.636626 0.63975-9.596252-3.19875-17.273253 21.751503-36.145881 56.298009-42.223506 17.273253-3.19875 33.906755-2.239125 46.381882 1.599375h1.2795c12.475127 3.518626 20.472003 9.276376 23.670754 16.313628v0.63975s0.959625 2.559 0.959625 3.8385c2.878875 7.677001 11.515502 14.074502 25.590004 17.913003 13.754627 3.518626 30.068255 3.838501 46.062007 1.2795 19.192503-4.798126 40.624131-5.757751 59.176884-0.959625 33.906755 8.316751 45.422257 31.66763 23.990629 52.779383m-80.288638 384.169934c-33.906755 41.263881-101.720266 53.099258-146.822647 26.229754-42.543381-25.590004-46.381882-74.850761-12.155252-110.037017 32.627255-33.58688 90.844514-44.142757 133.06802-24.630379 44.782507 20.791878 57.897384 69.093011 25.909879 108.117767M951.004139 233.188911L544.442952 8.316751c-20.152128-11.195627-45.102382-11.195627-65.25451 0L72.627255 233.188911C52.475127 244.384537 40 264.85654 40 287.247794v449.424443c0 22.391253 12.475127 42.863257 32.627255 54.058884l406.561187 224.872159c20.152128 11.195627 45.102382 11.195627 65.25451 0l406.561187-224.872159c20.152128-11.195627 32.627255-31.66763 32.627255-54.058884V286.927919c0-22.391253-12.475127-42.863257-32.627255-54.058883"/></svg>