<?xml version="1.0" standalone="no"?><!DOCTYPE svg PUBLIC "-//W3C//DTD SVG 1.1//EN" "http://www.w3.org/Graphics/SVG/1.1/DTD/svg11.dtd"><svg t="1680234334856" class="icon" viewBox="0 0 1024 1024" version="1.1" xmlns="http://www.w3.org/2000/svg" p-id="24944" xmlns:xlink="http://www.w3.org/1999/xlink" width="200" height="200"><path d="M40.96 0h942.08a40.96 40.96 0 0 1 40.96 40.96v942.08a40.96 40.96 0 0 1-40.96 40.96H40.96a40.96 40.96 0 0 1-40.96-40.96V40.96A40.96 40.96 0 0 1 40.96 0z" fill="#FFFFFF" p-id="24945"></path><path d="M40.96 20.48a20.48 20.48 0 0 0-20.48 20.48v942.08a20.48 20.48 0 0 0 20.48 20.48h942.08a20.48 20.48 0 0 0 20.48-20.48V40.96a20.48 20.48 0 0 0-20.48-20.48z m0-20.48h942.08a40.96 40.96 0 0 1 40.96 40.96v942.08a40.96 40.96 0 0 1-40.96 40.96H40.96a40.96 40.96 0 0 1-40.96-40.96V40.96A40.96 40.96 0 0 1 40.96 0z" fill="#EBEFF2" p-id="24946"></path><path d="M512 225.28c-113.152 0-204.8 27.818667-204.8 62.208v49.749333c0 34.133333 91.648 62.208 204.8 62.208s204.8-27.818667 204.8-62.208v-49.749333c0-34.389333-91.648-62.208-204.8-62.208z" fill="#286AAB" p-id="24947"></path><path d="M512 443.733333c-113.152 0-204.8-29.184-204.8-65.194666v78.165333c0 36.010667 91.648 65.194667 204.8 65.194667s204.8-29.184 204.8-65.194667V378.88c0 36.010667-91.648 64.853333-204.8 64.853333z" fill="#286AAB" p-id="24948"></path><path d="M512 556.714667c-113.152 0-204.8-29.184-204.8-65.194667v78.165333C307.2 605.866667 398.848 634.88 512 634.88s204.8-29.013333 204.8-65.194667V491.52c0 36.010667-91.648 65.194667-204.8 65.194667z" fill="#286AAB" p-id="24949"></path><path d="M217.088 716.8h-65.536a51.2 51.2 0 0 0 0 102.4h65.536a51.2 51.2 0 0 0 0-102.4zM213.333333 802.133333h-57.685333a34.133333 34.133333 0 0 1 0-68.266666H213.333333a34.133333 34.133333 0 0 1 0 68.266666z" fill="#DF0024" p-id="24950"></path><path d="M365.482667 785.066667h-13.994667l39.424 34.133333h-25.6l-59.733333-51.2h59.733333a17.066667 17.066667 0 0 0 17.066667-17.066667 17.066667 17.066667 0 0 0-17.066667-17.066666h-71.850667v85.333333h-17.066666V716.8h89.088a34.133333 34.133333 0 0 1 34.133333 33.536 34.133333 34.133333 0 0 1-34.133333 34.730667zM555.605333 819.2l-59.733333-94.805333a15.445333 15.445333 0 0 0-13.226667-7.594667 15.616 15.616 0 0 0-13.226666 7.594667L409.6 819.2h20.053333l46.506667-73.301333 6.4-10.154667 6.4 10.154667 23.04 36.181333h-54.186667l8.533334 17.066667h56.405333l12.8 20.053333z m119.466667-17.664h-71.168a34.133333 34.133333 0 1 1 0-67.413333h58.112l12.8-17.066667h-75.178667a50.602667 50.602667 0 1 0 0 101.12h66.645334z m27.306667 0V716.8h-17.066667v93.098667a8.533333 8.533333 0 0 0 8.533333 8.533333h95.829334l8.533333-17.066667z m115.712-25.6H904.533333l8.533334-17.066667H817.834667A34.133333 34.133333 0 0 1 850.688 733.866667h58.112l12.8-17.066667h-75.178667a50.602667 50.602667 0 1 0 0 101.12H913.066667l8.533333-17.066667h-70.912a34.133333 34.133333 0 0 1-32.853333-25.088z" fill="#DF0024" p-id="24951"></path></svg>