<?xml version="1.0" standalone="no"?><svg xmlns:xlink="http://www.w3.org/1999/xlink" width="200" height="200" version="1.1" viewBox="0 0 1024 1024" xmlns="http://www.w3.org/2000/svg"><path fill="#040000" d="M512 512m-512 0a512 512 0 1 0 1024 0 512 512 0 1 0-1024 0Z"/><path fill="#DD2A2A" d="M928.768 454.848c-21.632-42.048-95.616-56.448-123.84-70.016-9.344 18.368-26.304 49.856-31.744 47.168-3.712-1.856 5.056-21.376 9.536-43.456a304.64 304.64 0 0 0 4.736-38.784c-16.128-63.04-60.736-217.856-119.488-231.808-84.864-20.096-111.872 7.168-159.488 8.192-47.552 0.896-77.44-25.024-129.728-13.184C312.128 128 298.944 277.952 297.216 302.784c8.896 12.288 38.4 45.568 104.64 60.224 52.544 11.712 64.576 7.36 97.792 23.232 38.4 18.368 32.128 38.208 35.712 59.648 3.52 21.376 27.072 25.664 21.312 33.856-5.696 8.256-113.408-19.264-168.448-49.92-54.976-30.72-107.072-47.104-112.768-82.432-3.456-21.12 3.904-34.432 10.24-41.856-34.496-3.008-141.184-7.168-174.08 52.928-36.096 66.112 163.84 209.024 310.912 261.568 126.016 44.992 344.96 84.416 458.944-12.8 56.896-48.576 64.256-119.36 47.296-152.384zM488.896 242.432s-34.176-1.664-57.856 4.992-21.376 16.512-38.464 16.448c-7.68-0.064-27.136-4.736-31.424-29.888-4.288-25.088 3.52-34.368 3.52-34.368s17.856 23.552 36.416 26.368c18.56 2.88 90.688-6.4 95.68 3.648s-7.872 12.8-7.872 12.8z m173.12-77.056c-6.144 13.184-63.552 20.288-63.552 20.288s27.84-11.776 26.048-26.752-45.696-19.584-45.696-19.584 95.936-1.728 83.2 26.048z"/><path fill="#FFFFFF" d="M770.112 809.344l3.84 20.032s-37.376 19.392-60.928 33.28c-23.488 13.888-65.152 62.656-76.48 51.968-12.736-11.968 50.496-73.024 73.728-109.44 22.4-35.072 25.6-112.896 25.6-112.896s-23.488 9.792-44.992 10.752c-24.256 1.088-32.96-5.888-46.464-7.232s-18.688 5.184-33.536 5.184c-14.208 0-20.416-4.48-48.832-5.184-28.416-0.704-71.808 8-105.472 2.944s-61.76-78.72-94.208-78.72c-11.904 0-9.664 9.28-21.248 6.912s-36.992-40.512-61.376-52.16c-26.368-12.608-57.088 0.448-56.192 38.336 0.448 17.856 14.72 38.4 30.976 54.272 18.176 17.792 37.952 30.592 25.28 41.856-21.12 18.944-81.344-52.288-81.344-52.288l-131.584-0.96v34.624l-18.944 2.304-2.368 1.088C116.032 882.688 298.752 1012.992 512 1012.992c166.4 0 312.832-77.952 402.944-203.712h-144.832z m-176.64-14.016c-27.456 0-46.592-17.408-48.768-21.696a8.512 8.512 0 0 1 6.72-12.032c6.72-1.088 26.176 13.184 42.688 12.16 17.408-1.088 19.968-12.224 26.048-12.224 12.224 0 1.856 33.792-26.688 33.792z"/></svg>