<?xml version="1.0" standalone="no"?><svg xmlns:xlink="http://www.w3.org/1999/xlink" width="201.5625" height="200" data-spm-anchor-id="a313x.7781069.0.i53" version="1.1" viewBox="0 0 1032 1024" xmlns="http://www.w3.org/2000/svg"><path fill="#fbc02d" d="M567.684414 131.681103L471.905103 24.496552A73.560276 73.560276 0 0 0 417.103448 0H73.560276A73.560276 73.560276 0 0 0 0 73.560276V710.62069a73.560276 73.560276 0 0 0 73.560276 73.560276h880.551724a73.560276 73.560276 0 0 0 73.569103-73.560276V229.808552a73.560276 73.560276 0 0 0-73.569103-73.560276H622.494897a73.560276 73.560276 0 0 1-54.810483-24.567173z m-145.434483-70.17931l83.862069 94.675862H62.163862V61.501793h360.165517-0.079448zM965.367172 722.096552H62.084414V218.482759h903.282758v503.684413-0.07062z" data-spm-anchor-id="a313x.7781069.0.i50"/><path fill="#fbc02d" d="M482.648276 752.993103h62.305103v243.42069h-62.305103z" data-spm-anchor-id="a313x.7781069.0.i55"/><path fill="#fbc02d" d="M31.117241 919.543172h965.367173a31.117241 31.117241 0 1 1 0 62.234483H31.117241a31.117241 31.117241 0 1 1 0-62.234483z" data-spm-anchor-id="a313x.7781069.0.i49"/><path fill="#fbc02d" d="M230.329379 882.758621h542.375724v135.212138H230.329379z" data-spm-anchor-id="a313x.7781069.0.i48"/><path fill="#d4237a" d="M160.882759 513.103448c16.481103 13.682759 35.089655 20.453517 56.205241 20.453518 11.767172 0 20.744828-1.986207 26.774069-6.179311 6.029241-4.272552 8.898207-9.419034 8.898207-15.748414a22.801655 22.801655 0 0 0-7.062069-15.739586c-4.705103-5.005241-17.284414-11.696552-37.517241-20.153379-32-13.462069-48.110345-33.324138-48.110345-59.224276 0-19.120552 7.362207-33.836138 21.707034-44.358621 14.565517-10.513655 33.615448-15.810207 57.520552-15.810207 20.012138 0 36.784552 2.568828 50.317241 7.724138v40.898207a83.350069 83.350069 0 0 0-48.180965-13.974069 48.701793 48.701793 0 0 0-25.750069 5.958621c-6.320552 3.972414-9.710345 9.268966-9.710345 15.739586 0 5.296552 2.206897 10.151724 6.62069 14.565517s15.377655 10.443034 32.662069 18.025931c20.232828 8.827586 34.356966 17.875862 41.931034 27.586207a54.439724 54.439724 0 0 1 11.334621 34.568828c0 19.641379-6.920828 34.427586-20.894897 44.729379-13.974069 10.301793-33.615448 15.448276-59.365517 15.448276-23.543172 0-42.522483-3.751724-57.529379-11.325793v-43.184552h0.150069z m359.282758-117.336276h-72.977655v52.524138h67.239724v35.610483h-67.239724v80.692966h-43.617103V360.094897h116.594758v35.672275z m178.829242 0h-58.262069v168.827587h-43.767173V395.767172h-58.112V360.165517h160.141242v35.601655zM770.648276 493.462069v71.13269h-43.625931V360.094897h70.479448c50.829241 0 76.279172 21.548138 76.279173 64.732689a62.384552 62.384552 0 0 1-23.022345 50.467311c-15.298207 12.499862-34.577655 18.608552-57.670621 18.167172H770.648276z m0-99.531035v66.056828h18.97931c25.529379 0 38.4-11.255172 38.4-33.465379 0-21.848276-12.649931-32.591448-37.95862-32.591449h-19.42069z m-391.38869-27.383172l8.297931 3.019035a8.827586 8.827586 0 0 1 5.278897 11.308137L329.427862 555.078621a8.827586 8.827586 0 0 1-11.308138 5.270069l-8.297931-3.019035a8.827586 8.827586 0 0 1-5.278896-11.308138l63.408551-174.203586a8.827586 8.827586 0 0 1 11.308138-5.270069z" data-spm-anchor-id="a313x.7781069.0.i54"/></svg>