<svg width="200" height="200" version="1.1" viewBox="0 0 1024 1024" xmlns="http://www.w3.org/2000/svg"><path fill="#137777" d="M0 279.29098m14.456471 0l995.087058 0q14.456471 0 14.456471 14.456471l0 2.108235q0 14.456471-14.456471 14.456471l-995.087058 0q-14.456471 0-14.456471-14.456471l0-2.108235q0-14.456471 14.456471-14.456471Z"/><path fill="#137777" d="M0 351.673725m14.456471 0l995.087058 0q14.456471 0 14.456471 14.456471l0 2.108235q0 14.456471-14.456471 14.456471l-995.087058 0q-14.456471 0-14.456471-14.456471l0-2.108235q0-14.456471 14.456471-14.456471Z"/><path fill="#137777" d="M0 424.056471m14.456471 0l995.087058 0q14.456471 0 14.456471 14.45647l0 2.108235q0 14.456471-14.456471 14.456471l-995.087058 0q-14.456471 0-14.456471-14.456471l0-2.108235q0-14.456471 14.456471-14.45647Z"/><path fill="#137777" d="M0 496.439216m14.456471 0l995.087058 0q14.456471 0 14.456471 14.45647l0 2.108236q0 14.456471-14.456471 14.45647l-995.087058 0q-14.456471 0-14.456471-14.45647l0-2.108236q0-14.456471 14.456471-14.45647Z"/><path fill="#137777" d="M0 568.922353m14.456471 0l995.087058 0q14.456471 0 14.456471 14.456471l0 2.108235q0 14.456471-14.456471 14.45647l-995.087058 0q-14.456471 0-14.456471-14.45647l0-2.108235q0-14.456471 14.456471-14.456471Z"/><path fill="#137777" d="M0 641.305098m14.456471 0l995.087058 0q14.456471 0 14.456471 14.456471l0 2.108235q0 14.456471-14.456471 14.456471l-995.087058 0q-14.456471 0-14.456471-14.456471l0-2.108235q0-14.456471 14.456471-14.456471Z"/><path fill="#137777" d="M0 713.687843m14.456471 0l995.087058 0q14.456471 0 14.456471 14.456471l0 2.108235q0 14.456471-14.456471 14.456471l-995.087058 0q-14.456471 0-14.456471-14.456471l0-2.108235q0-14.456471 14.456471-14.456471Z"/><path fill="#137777" d="M279.29098 1024m0-14.456471l0-995.087058q0-14.456471 14.456471-14.456471l2.108235 0q14.456471 0 14.456471 14.456471l0 995.087058q0 14.456471-14.456471 14.456471l-2.108235 0q-14.456471 0-14.456471-14.456471Z"/><path fill="#137777" d="M351.673725 1024m0-14.456471l0-995.087058q0-14.456471 14.456471-14.456471l2.108235 0q14.456471 0 14.456471 14.456471l0 995.087058q0 14.456471-14.456471 14.456471l-2.108235 0q-14.456471 0-14.456471-14.456471Z"/><path fill="#137777" d="M424.156863 1024m0-14.456471l0-995.087058q0-14.456471 14.45647-14.456471l2.108236 0q14.456471 0 14.45647 14.456471l0 995.087058q0 14.456471-14.45647 14.456471l-2.108236 0q-14.456471 0-14.45647-14.456471Z"/><path fill="#137777" d="M496.539608 1024m0-14.456471l0-995.087058q0-14.456471 14.45647-14.456471l2.108236 0q14.456471 0 14.45647 14.456471l0 995.087058q0 14.456471-14.45647 14.456471l-2.108236 0q-14.456471 0-14.45647-14.456471Z"/><path fill="#137777" d="M568.922353 1024m0-14.456471l0-995.087058q0-14.456471 14.456471-14.456471l2.108235 0q14.456471 0 14.45647 14.456471l0 995.087058q0 14.456471-14.45647 14.456471l-2.108235 0q-14.456471 0-14.456471-14.456471Z"/><path fill="#137777" d="M641.305098 1024m0-14.456471l0-995.087058q0-14.456471 14.456471-14.456471l2.108235 0q14.456471 0 14.456471 14.456471l0 995.087058q0 14.456471-14.456471 14.456471l-2.108235 0q-14.456471 0-14.456471-14.456471Z"/><path fill="#137777" d="M713.687843 1024m0-14.456471l0-995.087058q0-14.456471 14.456471-14.456471l2.108235 0q14.456471 0 14.456471 14.456471l0 995.087058q0 14.456471-14.456471 14.456471l-2.108235 0q-14.456471 0-14.456471-14.456471Z"/><path fill="#1DE5EF" d="M113.443137 113.443137m50.196079 0l696.721568 0q50.196078 0 50.196079 50.196079l0 696.721568q0 50.196078-50.196079 50.196079l-696.721568 0q-50.196078 0-50.196079-50.196079l0-696.721568q0-50.196078 50.196079-50.196079Z"/><path fill="#137777" d="M265.738039 265.738039h492.624314v492.624314H265.738039z"/><path fill="#137777" d="M302.983529 302.983529h418.133334v418.133334H302.983529z"/><path fill="#1DE5EF" d="M359.80549 359.80549h304.38902v304.38902H359.80549z"/><path fill="#137777" d="M391.629804 391.629804h240.740392v240.740392H391.629804z"/></svg>