<svg width="200" height="200" version="1.1" viewBox="0 0 1024 1024" xmlns="http://www.w3.org/2000/svg"><path fill="#66AFF9" d="M896 64c35.328 0 64 28.672 64 64v192H64V128c0-35.328 28.672-64 64-64h768z m-512 80.0256H192a32 32 0 0 0-32 31.9488v32.0512c0 17.664 14.336 32 32 32H384c17.664 0 32-14.336 32-32v-32a32 32 0 0 0-32-32.0512z m272.0256 0a47.9744 47.9744 0 1 0 0 95.9488 47.9744 47.9744 0 0 0 0-96z m128 0a47.9744 47.9744 0 1 0 0 95.9488 47.9744 47.9744 0 0 0 0-96z"/><path fill="#007AF5" d="M960 384v256H64v-256h896zM384 464.0256H192a32 32 0 0 0-32 31.9488v32.0512c0 17.664 14.336 31.9488 32 31.9488H384c17.664 0 32-14.336 32-31.9488v-32.0512a32 32 0 0 0-32-31.9488z m272.0256 0a47.9744 47.9744 0 1 0 0 95.9488 47.9744 47.9744 0 0 0 0-95.9488z m128 0a47.9744 47.9744 0 1 0 0 95.9488 47.9744 47.9744 0 0 0 0-95.9488z m175.9744 239.9744v192c0 35.328-28.672 64-64 64h-768c-35.328 0-64-28.672-64-64v-192h896zM384 784.0256H192a32 32 0 0 0-32 31.9488v32.0512c0 17.664 14.336 32 32 32H384c17.664 0 32-14.336 32-32v-32a32 32 0 0 0-32-32.0512z m272.0256 0a47.9744 47.9744 0 1 0 0 95.9488 47.9744 47.9744 0 0 0 0-96z m128 0a47.9744 47.9744 0 1 0 0 95.9488 47.9744 47.9744 0 0 0 0-96z"/></svg>