<svg width="200" height="200" version="1.1" viewBox="0 0 1024 1024" xmlns="http://www.w3.org/2000/svg"><path fill="#313FA0" d="M487.75 554L277.6 918c-10.78 18.67 2.69 42 24.25 42h420.31c21.55 0 35.03-23.33 24.25-42L536.25 554c-10.78-18.67-37.72-18.67-48.5 0z"/><path fill="#8C9EFF" d="M904 680H120c-30.93 0-56-25.07-56-56V120c0-30.93 25.07-56 56-56h784c30.93 0 56 25.07 56 56v504c0 30.93-25.07 56-56 56z"/><path fill="#E1F5FF" d="M639.69 340.02c-5.37 0-10.75-2.05-14.85-6.15-8.2-8.2-8.2-21.49 0-29.7L777.5 151.5c8.2-8.2 21.49-8.2 29.7 0 8.2 8.2 8.2 21.49 0 29.7L654.54 333.87a20.96 20.96 0 0 1-14.85 6.15zM629.53 467.16c-5.37 0-10.75-2.05-14.85-6.15-8.2-8.2-8.2-21.5 0-29.7l152.67-152.67c8.2-8.2 21.49-8.2 29.7 0s8.2 21.5 0 29.7L644.38 461.01c-4.1 4.1-9.48 6.15-14.85 6.15z"/></svg>