<?xml version="1.0" standalone="no"?><svg xmlns:xlink="http://www.w3.org/1999/xlink" width="200" height="200" version="1.1" viewBox="0 0 1024 1024" xmlns="http://www.w3.org/2000/svg"><path fill="#7FC235" d="M150.72256 580.096A178.176 178.176 0 0 1 0.19456 395.776a307.2 307.2 0 0 1 143.36-210.944 609.792 609.792 0 0 1 374.784-116.224 972.8 972.8 0 0 1 238.592 40.96c-7.168-68.096 81.92-6.656 115.712-13.824 47.616 13.824 115.712 27.648 129.536 81.92 20.48 34.304 34.304 88.576-27.136 95.744-68.096 27.136-136.192-27.648-190.976-54.784 6.656 20.48 13.824 40.96 34.304 47.616a216.576 216.576 0 0 0 183.808 20.48c40.96-13.312-13.824 54.784-34.304 47.616a487.424 487.424 0 0 1-224.768 13.824c-61.44 0-47.616 81.92-20.48 122.88 13.824 20.48 27.136 40.96-6.656 20.48-54.784-13.824-88.576-61.44-129.536-95.744s-122.88-40.96-150.016 7.168A193.024 193.024 0 0 0 430.27456 491.52c-20.48-13.824-40.96-20.48-61.44-34.304A175.104 175.104 0 0 0 177.85856 307.2a110.08 110.08 0 0 0-95.232 143.36A110.08 110.08 0 0 0 232.64256 512 67.072 67.072 0 0 0 204.99456 389.12c-54.272-13.824-54.272 74.752 0 47.616 61.44 27.136-33.792 75.264-60.928 34.304a71.168 71.168 0 0 1 13.312-122.88 119.296 119.296 0 0 1 156.672 122.88 138.24 138.24 0 0 1-163.328 109.056z m790.528-327.168c61.44-20.48 34.304-122.88-27.136-116.224a59.392 59.392 0 0 0-34.304 109.056 66.56 66.56 0 0 0 61.44 7.168z m-40.96-13.824c-68.096-20.48-6.656-115.712 40.96-68.096 34.304 27.136 0 81.92-40.96 68.096z m34.304-40.96c20.48-40.96-68.096 0-13.824 6.656z"/><path fill="#0D615A" d="M321.21856 886.784c-61.44-6.656-61.44-75.264-54.784-122.88 0-20.48-6.656-40.96 6.656-54.272 40.96-40.96 68.608 27.136 61.44 68.096 7.168 13.312-6.656 33.792 7.168 47.616s33.792 6.656 54.272 13.824 40.96 6.656 47.616-13.824c7.168-40.96-6.656-81.92 7.168-115.712 61.44-34.304 61.44 54.272 54.272 88.576a172.544 172.544 0 0 1-6.656 81.92c-27.136 33.792-47.616-13.824-75.264-7.168a136.192 136.192 0 0 1-101.888 13.824z m-300.032 0c-6.656-13.824-20.48-54.784 13.312-47.616h122.88c40.96-48.128-33.792-61.44-74.752-48.128a67.584 67.584 0 0 1-68.096-88.576c6.656-47.616 60.928-60.928 102.4-54.272s102.4-20.48 88.576 40.96c0 20.48-27.136 6.656-40.96 6.656-33.792 6.656-102.4-13.824-88.576 40.96 40.96 27.136 102.4-6.656 143.36 34.304 20.48 40.448 20.48 102.4-27.136 122.368-20.48 13.824-47.616 6.656-75.264 6.656H27.84256l-6.656-13.312z m524.8 0c-6.656-13.824-20.48-54.784 13.824-47.616h122.368c40.96-48.128-27.136-61.44-68.096-48.128s-88.576-40.448-74.752-88.576 68.096-60.928 115.712-60.928a138.752 138.752 0 0 1 74.752 6.656c13.824 6.656 20.48 54.272 0 47.616a339.968 339.968 0 0 0-115.712 6.656c-40.96 61.44 61.44 40.96 95.744 48.128 54.272 6.656 60.928 74.752 40.448 115.712a58.88 58.88 0 0 1-68.096 33.792h-122.368c-7.168-13.312-13.824-13.312-13.824-13.312z m368.128-102.4c34.304-6.656 74.752 13.824 102.4-13.312 13.312-40.96 13.312-116.224-34.304-129.536a367.104 367.104 0 0 0-150.016 6.656c-47.616 20.48-33.792 81.92-33.792 122.88s-7.168 95.232 40.96 115.712a751.104 751.104 0 0 0 122.368 6.656c27.136 6.656 27.136-33.792 27.136-47.616h-81.408c-40.96 13.824-61.44-13.824-48.128-47.616 0-13.824 54.784-13.824 54.784-13.824z m-54.784-81.92c27.648-13.312 109.056-27.136 109.056 27.648v13.312h-88.576c-33.792 7.168-33.792-20.48-20.48-40.96z"/></svg>