<svg width="200" height="200" version="1.1" viewBox="0 0 1024 1024" xmlns="http://www.w3.org/2000/svg"><path fill="#3D6480" d="M664.015238 527.555048v-41.447619h-57.344l62.854095-61.708191-29.013333-29.574095-113.030095 110.933333 112.883809 112.932572 29.305905-29.330286-61.781333-61.805714zM694.393905 486.107429h43.495619v41.447619h-43.495619zM773.583238 486.107429h43.495619v41.447619h-43.495619zM852.260571 486.107429h43.495619v41.447619h-43.495619zM788.675048 252.65981v41.447619h57.319619l-62.854096 61.70819 29.013334 29.574095 113.054476-110.982095-112.908191-112.859429-29.305904 29.305905 61.805714 61.805715zM714.776381 252.65981h43.52v41.447619h-43.52zM635.587048 252.65981h43.52v41.447619h-43.52zM556.934095 252.65981h43.495619v41.447619h-43.495619z"/><path fill="#EFF9FE" d="M148.967619 211.18781V812.860952h71.484952l105.472-105.472v-15.238095H297.447619v-27.452952h28.476952v-39.472762l32.085334-4.583619v44.080762h10.581333l55.417905-55.417905-1.26781-398.116571H148.967619z m213.625905 275.968H209.066667v-19.504762h153.526857v19.504762z m0-79.530667H209.066667v-19.504762h153.526857v19.504762z m0-79.506286H209.066667v-19.504762h153.526857v19.504762z"/><path fill="#3D6480" d="M107.52 169.74019V854.308571h71.484952l41.447619-41.472H148.967619V211.18781h273.773714l1.292191 398.09219 41.301333-41.325714-1.267809-398.214096z"/><path fill="#3D6480" d="M209.066667 308.614095h153.526857v19.504762H209.066667zM209.066667 388.144762h153.526857v19.504762H209.066667zM209.066667 467.651048h153.526857v19.504762H209.066667z"/><path fill="#EC0800" d="M358.034286 620.617143l-32.085334 4.583619v39.472762H297.447619v27.452952h28.476952V794.672762c0 28.257524 14.140952 38.912 42.203429 38.912 12.190476 0 24.356571-2.364952 34.523429-6.070857l1.657904-0.609524-4.315428-25.575619-2.267429 0.560762c-10.191238 2.608762-17.92 3.900952-25.307428 3.900952-13.238857 0-14.433524-4.437333-14.433524-15.750095v-97.913905h43.178666l2.755048-27.452952h-45.958095v-44.056381z"/></svg>