<?xml version="1.0" standalone="no"?><svg xmlns:xlink="http://www.w3.org/1999/xlink" width="200" height="200" version="1.1" viewBox="0 0 1024 1024" xmlns="http://www.w3.org/2000/svg"><path fill="#DD4814" d="M512 512m-510.723192 0a510.723192 510.723192 0 1 0 1021.446384 0 510.723192 510.723192 0 1 0-1021.446384 0Z"/><path fill="#FFFFFF" d="M164.723551 443.790364c-37.673496 0-68.207082 30.531032-68.207082 68.207082 0 37.655621 30.533586 68.189207 68.207082 68.189207 37.665835 0 68.191761-30.533586 68.191761-68.189207-0.025536-37.67605-30.541247-68.207082-68.191761-68.207082zM651.575541 753.702304c-32.61989 18.840579-43.794514 60.520698-24.964149 93.122713 18.82015 32.609676 60.500269 43.794514 93.112498 24.948828 32.635212-18.807382 43.812389-60.484948 24.96415-93.109945-18.832918-32.58414-60.528359-43.774085-93.109945-24.961596z m-338.747371-241.69975c0-67.384818 33.477905-126.922374 84.688119-162.971771l-49.846583-83.48792c-59.66013 39.87982-104.049636 100.811651-122.48419 172.182663 21.514214 17.568878 35.290973 44.305237 35.290973 74.277028 0 29.953915-13.776758 56.690274-35.290973 74.259152 18.411571 71.399102 62.793416 132.320718 122.48419 172.197985l49.846583-83.503242c-51.212768-36.031521-84.685566-95.561416-84.685566-162.951342h-0.005107z m199.17183-199.19226c104.047082 0 189.419571 79.774963 198.364888 181.511023l97.177855-1.44024c-4.785476-75.106953-37.596888-142.530075-88.023142-192.118743-25.926863 9.790564-55.873117 8.291591-81.756569-6.626633-25.934524-14.959082-42.185736-40.20413-46.629027-67.601876a296.970214 296.970214 0 0 0-79.156988-10.758384c-47.13209 0-91.695242 11.057157-131.25586 30.65616l47.384898 84.902623a198.482354 198.482354 0 0 1 83.896499-18.526483z m0 398.358983a198.336798 198.336798 0 0 1-83.891392-18.529038l-47.382344 84.892409c39.573387 19.616878 84.141646 30.694464 131.268629 30.694464 27.425835 0 53.94003-3.815102 79.136558-10.78392 4.448399-27.405406 20.702165-52.630025 46.636689-67.606983 25.898773-14.948868 55.822045-16.427411 81.759122-6.626633 50.423701-49.586115 83.235112-117.014344 88.010374-192.134065l-97.180409-1.422364c-8.952978 101.761596-94.315252 181.518683-198.359781 181.518683z m139.550005-440.917546c32.630105 18.840579 74.294903 7.681277 93.109945-24.938614 18.853347-32.617337 7.694045-74.294903-24.93606-93.140588-32.609676-18.82015-74.284688-7.640419-93.130374 24.982025-18.807382 32.599461-7.635312 74.279581 24.959043 93.094623z"/><path fill="#FFFFFF" fill-opacity=".706" d="M514.829406 347.838244l-37.581566 38.518744-4.987212-0.587332 9.593936-25.47998-38.462564 38.457456 7.469327 66.184619-4.39222-38.406384-3.077107-27.773128-31.016219 18.91208-15.709846 32.116828-21.465696 36.879322 20.280818 50.091731 6.521936 39.461027 8.061765 19.267032-13.577576 16.20014-14.274713 17.270105h39.062663l4.918265-35.183721 15.717506-24.070384 26.200099 4.514793 28.881397-11.56788 21.348229-10.914155 20.863043 13.85592-25.017776 29.946255-25.671501 24.182743 40.270524 0.592439 0.102144-16.381447 30.482514-24.203172 11.154195 14.037227-32.081078 45.689297 40.919142 0.234933-1.488758-22.898275 29.284868-27.778234-14.994833-30.413566-1.726244-37.34408 30.004987-17.678683 16.95601 3.58783 23.066813-8.575042L667.040239 452.076848l-35.929376 10.50813-21.823202 32.826733-36.938055 19.61177-51.537077-20.901346-37.525387-27.893147 24.54025-34.35635-8.656759-35.939591 15.653666-48.094803z"/><path fill="#DD8371" d="M459.630444 539.093865l37.359401 23.544339 21.343123-10.916708-58.702524-12.625077z m-40.857855 9.333467l7.4157 45.33179 15.717507-24.070384-23.130654-21.258853z m173.382862 10.163391l-21.639341 35.168399 36.636728-4.757386-14.994833-30.413566z m-21.639341 35.168399l-32.078524 45.689297 40.921696 0.234933-1.488758-22.898275-7.354414-23.028508z m-31.314993-28.179152l-25.017775 29.946254 14.701167 8.39629 10.316608-38.342544z m-25.017775 29.946254l-25.674055 24.182744 40.270523 0.592438-14.596468-24.775182z m-117.69616 16.143961l-14.27982 17.272658h39.065217l-24.787951-17.272658z"/><path fill="#E5AE9B" d="M443.389446 398.747132l7.469327 66.182065 9.075551-48.385915-16.547431-17.798703z m7.469327 66.182065l32.430923 1.294683 0.474972-22.144957-32.908449 20.850274z m-54.195391-15.153157l-21.465696 36.874214 35.699551-28.592838-14.233855-8.28393z m-21.465696 36.874214l20.280818 50.091731 15.418733-41.10811-35.699551-8.983621z m269.661845-6.75176l-24.425336 23.661805 16.956009 3.587831 7.466774-27.247083z m-54.430324 41.343042l-28.817556 21.491232 30.541247 15.852848-1.726245-37.346633z m-28.82011 21.491232l-43.278683 8.988728 20.863042 13.853367 22.415641-22.842095z m-22.413087 22.842095l-10.316609 38.345097 30.479961-24.203172-20.163352-14.141925z m-10.316609 38.345097l-14.701167-8.396289 14.593916 24.775182 0.107251-16.378893z m-10.546433-52.201017l2.665975-25.490195-61.368499 12.865117 58.702524 12.627631z m-58.707631-12.625078l-40.850195 9.333467 23.1281 21.261406 17.722095-30.592319z m-40.852748 9.333467l-16.777257 27.783341 24.18785 17.551003-7.413147-45.331791z m7.410593 45.33179l-29.706214 17.911063 24.785396 17.272658 4.918264-35.183721z m180.959441-4.757386L570.513556 593.751461l7.349307 23.023402 29.284868-27.783342z"/><path fill="#EBCFC6" d="M514.829406 347.838244l-37.581566 38.518744 18.789507-7.099053 18.794613-31.419691z m-37.581566 38.518744l-9.494344-1.174664-7.821725 31.358404 39.238862-20.612788-21.925346-9.570952z m-17.313516 30.18374l-9.075551 48.391023 32.903342-20.852828-23.825237-27.535641z m-9.075551 48.391023l-38.482992-47.272539-1.481098 40.398204 39.96409 6.869227z m-39.96409-6.869227l-35.699551 28.590284 35.699551 8.983621v-37.576459z m0 37.573905l-15.418733 41.10811 23.299192 11.682793-7.883012-52.788349z m7.880459 52.790903l47.369576-41.577975-29.461067-7.627651-17.911062 49.208179z m47.374683-41.577975l54.662704-12.73233-37.525387-27.893147-17.134763 40.622923z m-53.779152-89.187591l34.095881 8.861047-3.079661-27.773127-31.01622 18.91208z m31.01622-18.91208l24.361496-13.559701 14.121496-24.897756-38.482992 38.457457z m187.72397 63.832738l-10.674115 40.985536 24.422783-23.661805-13.746115-17.323731z m13.748668 17.321177l-7.469327 27.247082 23.06426-8.580149-15.597486-18.666933z m-24.425336 23.661805l-11.149088-8.16391-18.858454 25.842594 30.004988-17.678684z m-30.004988 17.678684l-18.079601-6.225716-10.737955 27.719501 28.815002-21.493785z m-28.82011 21.493785l-40.610154-16.506573-2.665975 25.492748 43.278683-8.983621z m-101.981207-3.641456l8.478005 35.112219 28.881397-11.56788-37.359402-23.544339z m132.525008 19.494304l-52.956888 6.989247 20.163352 14.141925 11.154194 14.037227 21.641895-35.168399z m-190.157566 17.614843l8.059212 19.264479-13.577576 16.20014 29.70366-17.911063-24.190404-17.553556z"/><path fill="#EDD9D3" d="M496.0399 379.255382l-18.789506 7.099052 21.925347 9.57606-3.135841-16.675112z m-28.286404 5.929496l-24.366603 13.559701 16.547431 17.798703 7.814065-31.358404z m-7.821725 31.358404l23.825236 27.533087 24.067831-12.211391-47.893067-15.321696z m-47.561098 1.11593l38.482993 47.267431-4.387112-38.401276-34.095881-8.866155z m0 0l-15.709845 32.116828 14.233855 8.278823 1.47599-40.398205z m-1.481097 40.398204v37.579013l39.96409-30.707232-39.96409-6.869227z m39.96409 6.869227l15.296159 41.92016 17.134764-40.622923-32.430923-1.294683z m15.296159 41.92016l54.851671 19.381945-0.186414-32.114274-54.66781 12.732329z m0 0L418.777696 548.424778l40.852748-9.330913 6.521935-32.247062z m-6.521935 32.247062l-17.722094 30.59232 26.200099 4.5199-8.478005-35.11222z m-40.857855 9.333467l-23.296638-11.68024 6.521935 39.461028 16.777257-27.783342z m0 0l17.913616-49.20818-25.791521-3.575062 7.880459 52.783242z m102.228908-22.19603l40.612708 16.506573 10.735401-27.719501-51.345556 11.210374z m51.348109-11.210374l18.079601 6.223162 18.858454-25.842594-36.938055 19.616878z m36.940609-19.619432l11.146534 8.16391 10.674114-40.985536-21.823202 32.821626z m-47.67601 47.336379l-22.413087 22.842095 52.956887-6.989247-30.541247-15.852848zM667.040239 452.066633l-22.178154 27.834414 15.602593 18.666933 6.573008-46.501347z"/><path fill="#FFFFFF" d="M514.829406 347.838244l-18.794613 31.417138 3.140948 16.675112 15.653665-48.09225z m-15.653665 48.09225l-39.238863 20.615341 47.893067 15.321696-8.656758-35.937037z m8.651651 35.937037l-24.065277 12.211392-0.474973 22.144957 24.54025-34.356349z m-25.970275-71.577855l-14.103621 24.897755 4.448399 0.760978 9.662883-25.66384h-0.012768z m185.180569 91.776957l-35.929377 10.510684 13.748669 17.321177 22.178154-27.834414z m-216.181467 12.862564l-39.964089 30.707232 55.260249 11.210374-15.29616-41.917606z m15.29616 41.917606l-6.524489 32.247062 61.371053-12.865117-54.846564-19.381945z m54.846564 19.381945l51.348109-11.210374-51.53197-20.9039 0.186414 32.114274z"/></svg>