<svg width="200" height="200" version="1.1" viewBox="0 0 1024 1024" xmlns="http://www.w3.org/2000/svg"><path fill="#B6C2CD" d="M768 682.666667V426.666667a85.333333 85.333333 0 0 0-85.333333-85.333334H256v-85.333333a85.333333 85.333333 0 0 1 85.333333-85.333333h512a85.333333 85.333333 0 0 1 85.333334 85.333333v341.333333a85.333333 85.333333 0 0 1-85.333334 85.333334h-85.333333z"/><path fill="#324558" d="M170.666667 341.333333h512a85.333333 85.333333 0 0 1 85.333333 85.333334v341.333333a85.333333 85.333333 0 0 1-85.333333 85.333333H170.666667a85.333333 85.333333 0 0 1-85.333334-85.333333V426.666667a85.333333 85.333333 0 0 1 85.333334-85.333334z"/></svg>