<?xml version="1.0" standalone="no"?><!DOCTYPE svg PUBLIC "-//W3C//DTD SVG 1.1//EN" "http://www.w3.org/Graphics/SVG/1.1/DTD/svg11.dtd"><svg t="1680235078890" class="icon" viewBox="0 0 1024 1024" version="1.1" xmlns="http://www.w3.org/2000/svg" p-id="35236" xmlns:xlink="http://www.w3.org/1999/xlink" width="200" height="200"><path d="M412.224 511.936c-47.68-24.512-94.08-36.992-137.856-36.992-5.952 0-11.968 0.192-17.92 0.704a581.568 581.568 0 0 0-166.656 41.152L0 828.224c61.696-22.848 116.288-33.92 166.272-33.92 80.832 0 139.52 30.144 187.968 61.248 23.04-77.888 78.08-266.112 94.528-322.304a842.816 842.816 0 0 0-36.48-21.312z" fill="#00B3F1" p-id="35237"></path><path d="M528.32 591.04l-90.432 314.176c26.88 15.36 117.12 64 186.24 64 55.808 0 118.208-14.272 190.848-43.712l86.336-302.016c-58.624 18.944-114.88 28.544-167.488 28.544-95.936 0-163.072-31.104-205.44-60.992z" fill="#FFC300" p-id="35238"></path><path d="M292.8 368.768c77.12 0.832 134.144 30.208 181.44 60.544l92.8-317.376c-19.584-11.2-70.848-39.04-107.904-48.64A338.56 338.56 0 0 0 381.952 54.784c-51.84 0.96-108.416 13.952-172.928 39.808L120.576 405.12c64.832-24.448 120.64-36.352 172.16-36.352h0.064z" fill="#F8682C" p-id="35239"></path><path d="M1024 198.144c-58.816 22.784-116.224 34.432-171.008 34.432-91.712 0-159.36-31.808-203.136-62.336L557.952 488.448c61.696 39.68 128.256 59.904 198.08 59.904 56.96 0 115.968-13.696 175.488-40.704l-0.192-2.24 3.712-0.896L1024 198.144z" fill="#91C300" p-id="35240"></path></svg>